<?xml version="1.0" encoding="UTF-8"?>
<svg id="Camada_1" data-name="Camada 1" xmlns="http://www.w3.org/2000/svg" viewBox="0 0 300 300">
  <defs>
    <style>
      .cls-1 {
        fill: #1d1d1b;
      }
    </style>
  </defs>
  <g>
    <g>
      <path class="cls-1" d="M58.8,52.82c-17.22,28.45-22.35,66.82-3.76,95.84,18.28,27.76,52.93,43.91,83.87,53.31-8.28-1.91-16.38-4.58-24.29-7.69-23.54-9.44-46.98-22.94-61.22-44.57-14.15-21.97-14.92-50.17-6.33-74.31,2.83-8.06,6.44-15.83,11.11-23,0,0,.62.42.62.42h0Z"/>
      <path class="cls-1" d="M90.47,181.04c11.72,4.66,25.64,2.55,36-4.47,1.68-.98,3.5-2.58,5.05-3.77.68-.48,3.88-3.73,4.56-4.35,2.05-2.19,5.02-5.23,7.18-7.25,3.69-3.18,12.72-11.61,17.46-6.91,2.04,2.25,1.44,6.1-.65,8.94-4.24,5.84-11.54,9.13-17.77,12.36-4.26,2.16-8.52,4.32-12.85,6.35-4.31,1.9-9,4.41-13.44,5.1-2.83.54-5.68.87-8.55,1.15-3.04.11-5.94.59-8.88-.9,0,0,.92-1.27.92-1.27,2.1,1.39,5.36,1.23,7.9,1.21,2.83-.09,5.67-.48,8.46-.96,1.1-.05,2.28-.44,3.41-.84,7.77-2.99,15.15-6.94,22.52-10.82,5.84-3.22,13.07-6.64,16.85-12.34,1.13-1.78,1.99-4.04,1.01-6.01-.28-1.02-1.55-1.82-3.04-1.6l-1.12.19c-.71.24-1.59.48-2.24.83-4.89,2.29-8.98,6.14-12.94,9.79-2.1,2.07-6.05,6.07-8.28,7.93-.65.5-2.37,1.83-3.04,2.35-2.71,1.99-5.85,3.63-8.89,5.04-6.31,2.6-13.2,3.88-20.02,3.47-3.43-.23-6.81-.66-10.19-1.75,0,0,.59-1.46.59-1.46h0Z"/>
      <path class="cls-1" d="M158.18,163.37c.29.3.26.18.47.11,2.81-1.53,6.31-2.5,9.41-1.24,3.41,1.31,5.04,4.91,5.74,8.2.78,3.21-2.13,5.92-4.49,7.33-11.11,6.37-24.23,8.64-36.61,11.28-7.17,1.39-14.37,2.54-21.61,3.54l-.08-.6c7.22-.93,14.42-2.14,21.57-3.53,10.66-2.18,21.44-4.52,31.39-9,3.12-1.62,8.92-4.47,7.99-8.61-1.67-6.41-5.5-9.26-12.12-7.2-.37.11-.74.25-1.07.45-.05.02-.08.08,0,.34l-.62-1.09h0Z"/>
      <path class="cls-1" d="M170.88,197.81c3.01.96,5.95.52,8.86,1.79,1.49.59,2.96,1.75,3.24,3.46.23,1.7-.27,3.07-.63,4.65-.4,1.46-1.1,3.06-2.44,4.16-2,1.59-4.24,1.93-6.57,2.39-.68.11-1.69.1-2.39.06-7.43-.73-14.36-3.77-21.3-6.21-.13-.05-.33.04-.18-.06.07-.08.02-.15.04-.09,1.38,2.17,3.82,3.49,5.93,4.91,3.77,2.33,7.64,4.5,11.43,6.83,2.62,1.57,5.01,3.66,6.42,6.5.75,1.54,1,3.66-.15,5.15-1.13,1.44-2.89,2.36-4.66,2.35-1.73-.16-3.11-.92-4.5-1.77-7.4-5.08-13.38-11.78-19.65-18.08-3.93-4.13-8.03-8.56-11.85-12.82,0,0-.09-.1-.09-.1l-.05-.05s-.02-.02-.02-.02c-.09.07.78-.68.42-.35l-.4.37s-1.3-1.25-1.3-1.25l.44-.44s1.25,1.3,1.25,1.3c0,0-.4.37-.4.37-.37.32.47-.47.4-.37l.02.03s.05.05.05.05l.09.11.18.21c7.61,8.73,15.52,17.38,24.55,24.66,3.32,2.4,6.93,5.55,10.96,6.2,5.32-.92,3.47-5.32.95-8.42-1.8-2.14-4.32-3.84-6.78-5.42-2.06-1.58-15.09-7.99-13.87-10.35.19-.21.39-.23.51-.24.93-.02,1.8.39,2.58.66,0,0,2.08.72,2.08.72,5.53,1.78,11.19,3.68,16.99,4.1.55.02,1.48,0,2.03-.11,3.5-.64,6.85-1.57,7.78-5.44.85-2.85,1.93-5.23-1.44-6.94-2.49-1.15-5.77-2.07-8.49-1.12,0,0-.04-1.38-.04-1.38h0Z"/>
      <path class="cls-1" d="M129.43,198.91c11.77.31,23.64,1.38,35.34-.29,4.3-.69,12.95-1.55,15.18-5.55.5-2.01,1.54-5.75-.92-6.8-2.6-.83-5.82.4-8.21,1.66,2.76-1.75,8.15-4.85,10.8-1.4,1.22,1.84.94,4.05.56,6.05-1.1,6.47-12.09,6.93-17.26,7.51-5.95.46-11.88.16-17.8.34-5.93.16-11.84-.34-17.74-.94,0,0,.05-.57.05-.57h0Z"/>
      <path class="cls-1" d="M162.47,229.41c2.49,3.22,5.98,6.66,5.87,11.16-.11,1.02-.72,2.02-1.52,2.63-3.08,2.39-7.27,1.42-10.08-.7-3.76-3.22-6.48-7.52-9.17-11.62-5.45-9.78-15.17-23.33-21.61-32.62,0,0,.38-.26.38-.26,6.6,9.54,15.92,22.73,21.68,32.59,1.77,2.73,3.71,5.35,5.89,7.75,1.96,2.32,4.56,4.63,7.75,4.6,2.8.08,5.62-1.67,4.95-4.8-.67-3.01-2.69-5.85-4.88-8.02,0,0,.74-.72.74-.72h0Z"/>
      <path class="cls-1" d="M152.06,236.75c.96,3.08,2.23,6.63.27,9.65-2.77,3.16-7.38.57-9.37-2.11-1.03-1.27-1.66-2.84-2.14-4.39-1.44-4.25-2.96-8.95-4.44-13.15-2.09-5.79-5-11.23-7.72-16.75-1.51-2.66-7.61-14.49-10.43-14.07,0,0-.17-1.48-.17-1.48.79.08,1.07.47,1.42.74,1.96,1.95,3.47,4.26,5.02,6.52,4.2,6.47,8.26,13.17,10.83,20.47,0,0,1.79,4.28,1.79,4.28,1.62,3.91,4.35,11.14,6.06,14.93,1.25,2.97,7.22,7.15,8.44,2.14.34-2.14.42-4.53.02-6.67,0,0,.41-.11.41-.11h0Z"/>
      <path class="cls-1" d="M140.14,234.43c.37,1.55.58,3.11.77,4.69.17,1.69.49,3.45-.27,5.07-1.08,2.61-4.34,4.43-7.05,3.11-1.76-.74-2.55-2.62-3.05-4.31-3.07-11.33-4.21-23.2-9.18-33.97-1.88-4.27-4.02-8.47-6.68-12.3-.7-.94-1.68-2.37-2.58-2.73,0,0,0-1.94,0-1.94,1.12.08,1.84,1.08,2.44,1.86,1.38,1.98,2.42,4.14,3.48,6.28,4.16,8.47,7.38,17.35,9.78,26.47,1.18,4.54,2.37,9.08,3.73,13.56.44,1.44.87,2.9,1.6,4.2,1.47,2.42,4.75,1.17,5.82-1.04,1.09-2.74.29-5.93.26-8.81,0,0,.93-.15.93-.15h0Z"/>
      <path class="cls-1" d="M129.84,235.59c.13.3.07.38.08.51-.18,1.53-.16,3.06-.39,4.59-.76,7.4-5.45,9.76-10.79,3.9-2.91-3.04-4.79-7.12-4.86-11.36-.06-7.18,1.36-14.43-.16-21.54-.62-7.82-2.46-16.3-8.81-21.51,0,0,.95-.86.95-.86,3.76,5.32,6.92,11.01,7.94,17.5.5,3.19,1.08,6.34,1.49,9.53.34,4.02.14,8.09-.12,12.09.06,2.21-.05,4.8.48,6.98.72,2.97,2.34,5.65,4.52,7.78,1.85,1.9,4.53,4.18,6.48,1.36,1.33-1.71,2.19-4.15,2.57-6.37.11-.61.24-1.73-.02-2.11,0,0,.65-.49.65-.49h0Z"/>
    </g>
    <path class="cls-1" d="M163.83,179.94c3.85-2.16,8.39-5.22,13-3.56,2.58,1.33,4.47,4.8,1.92,7.09-5.71,4.81-12.89,7.64-20.25,8.48-7.06.94-14.15,1.56-21.25,1.94,0,0-10.65.51-10.65.51,0,0-5.32.26-5.32.26-1.77.12-3.55.02-5.31.65l-.06-2c3.54.72,7.09.06,10.66.05,10.62-.61,21.28-1.07,31.85-2.19,7.27-.56,14.19-3.8,19.45-8.66.4-.36.62-.85.69-1.36.21-1.42-1.22-2.79-2.37-3.43-2.28-.9-4.89.03-7.26.6-1.69.47-3.37,1.07-4.97,1.82l-.11-.2h0Z"/>
  </g>
  <g>
    <g>
      <path class="cls-1" d="M206.13,200.61c17-28.78,21.57-67.47,2.07-96.16-19.13-27.43-54.16-42.77-85.47-51.67,12.52,2.7,24.72,6.89,36.43,12.08,19.46,8.72,38.37,20.67,50.66,38.49,14.82,21.68,16.14,50.08,7.82,74.43-2.74,8.13-6.27,15.99-10.88,23.24,0,0-.63-.41-.63-.41h0Z"/>
      <path class="cls-1" d="M172.06,72.93c-14.55-5.47-31.19-.74-42.28,9.71-6.1,5.9-11.63,12.89-18.92,17.42-1.08.63-2.45,1.31-3.64,1.72-.79.22-1.98.43-2.86.38-1.66-.17-3.21-1.11-3.78-2.81,0,0,.13.29.12.27-2.22-5.4,2.81-10.07,6.58-13.06,3.3-2.66,8.75-5.36,12.52-7.37,4.27-2.22,8.54-4.45,12.88-6.54,4.32-1.97,9.01-4.52,13.48-5.3,2.85-.59,5.73-.97,8.63-1.29,3.07-.15,5.99-.69,8.99.76,0,0-.89,1.29-.89,1.29-2.16-1.36-5.44-1.15-8.02-1.08-2.86.14-5.72.58-8.54,1.1-4.66.81-8.96,3.38-13.23,5.35-4.29,2.15-8.55,4.38-12.75,6.71-3.63,2.05-8.98,4.85-12.14,7.53-2.97,2.54-7.31,6.67-5.79,10.85.34,1.2,1.55,2.08,3.23,1.82,0,0,1.13-.2,1.13-.2,4.42-1.37,7.96-4.44,11.48-7.4,3.52-3.16,7.56-7.46,11.02-10.72,3.84-3.42,8.24-6.28,12.93-8.41,6.35-2.7,13.24-4.07,20.14-3.77,3.46.18,6.88.55,10.31,1.58,0,0-.56,1.47-.56,1.47h0Z"/>
      <path class="cls-1" d="M103.87,91.69c-.29-.3-.26-.18-.48-.1-2.81,1.57-6.33,2.6-9.47,1.4-3.47-1.25-5.19-4.84-5.96-8.15-.81-3.24,2.14-5.97,4.49-7.41,4.74-2.98,10.07-4.81,15.35-6.48,14.13-4.25,28.64-6.98,43.2-9.24,0,0,.08.6.08.6-7.28,1.04-14.52,2.37-21.72,3.87-10.73,2.35-21.57,4.85-31.57,9.48-3.1,1.63-8.99,4.62-8.04,8.73,1.78,6.44,5.79,9.21,12.39,7.03.38-.11.74-.27,1.08-.47.05-.02.08-.08-.01-.34l.63,1.08h0Z"/>
      <path class="cls-1" d="M90.48,57.46c-3.04-.91-6-.43-8.95-1.63-1.51-.56-3.03-1.67-3.35-3.39-.27-1.71.22-3.1.56-4.7.39-1.48,1.08-3.1,2.42-4.22,2.01-1.61,4.25-1.99,6.59-2.47.68-.12,1.7-.13,2.4-.1,6.77.61,13.21,2.9,19.55,5.18.77.31,1.61.68,2.32.7-.05.02-.1.17-.08.15-1.4-2.15-3.89-3.42-6.02-4.8-3.84-2.27-7.79-4.38-11.65-6.63-2.67-1.52-5.14-3.55-6.63-6.37-.8-1.53-1.12-3.66,0-5.19,1.12-1.48,2.85-2.41,4.64-2.47,1.74.11,3.15.84,4.58,1.67,7.57,4.94,13.74,11.56,20.19,17.77,4.05,4.08,8.27,8.45,12.21,12.65,0,0,.1.1.1.1l.05.05.02.02c.09-.07-.76.69-.41.36l.39-.38s1.33,1.23,1.33,1.23l-.43.44s-1.29-1.28-1.29-1.28c0,0,.39-.38.39-.38.36-.32-.46.48-.4.38,0,0-.03-.03-.03-.03,0,0-.05-.05-.05-.05l-.09-.1-.19-.21c-7.85-8.63-16.01-17.16-25.26-24.3-3.4-2.34-7.1-5.44-11.17-5.99-5.38,1.06-3.37,5.42-.75,8.49,1.88,2.1,4.45,3.76,6.96,5.3,1.73,1.32,16.19,8.17,13.96,10.22-1.06.37-2.11-.27-3.03-.53,0,0-2.12-.68-2.12-.68-5.61-1.68-11.34-3.48-17.19-3.8-.56-.01-1.5.03-2.05.14-3.5.69-6.9,1.66-7.79,5.56-.33,1.26-.9,2.81-.84,4.05.32,3.55,8.22,5.05,11.01,3.84,0,0,.06,1.38.06,1.38h0Z"/>
      <path class="cls-1" d="M132.37,55.69c-11.89-.12-23.86-1-35.67.85-4.04.69-14.8,1.97-15.56,6.68-.29,1.55-.62,3.38.02,4.82,1.8,2.84,7.16.58,9.53-.7-1.22.87-2.55,1.59-3.95,2.16-6.31,2.8-9.01-1.16-7.47-7.25,2.47-8.98,27.47-7.2,35.21-7.79,5.98-.25,11.96.15,17.92.66,0,0-.04.57-.04.57h0Z"/>
      <path class="cls-1" d="M98.49,25.73c-2.57-3.18-6.18-6.56-6.1-11.1.38-3.12,4.17-4.4,6.8-4.05,3.6.4,6.24,2.83,8.42,5.48,2.14,2.51,4.08,5.17,5.89,7.92,1.84,2.86,5.97,9.76,7.99,12.38,1.98,2.83,12.2,16.88,14.4,19.91,0,0-.38.27-.38.27-4.06-5.72-13.44-18.35-17.16-24-3.92-6.2-7.72-12.59-13.1-17.64-1.59-1.64-3.92-2.74-6.17-2.73-2.77-.05-5.68,1.77-4.94,4.87.73,3.01,2.83,5.82,5.06,7.95,0,0-.73.73-.73.73h0Z"/>
      <path class="cls-1" d="M108.89,18.22c-1.02-3.07-2.35-6.62-.4-9.68,2.76-3.15,7.38-.68,9.45,1.96,1.07,1.25,1.73,2.81,2.24,4.35,1.53,4.24,3.14,8.92,4.72,13.1,2.21,5.76,5.24,11.17,8.09,16.64,1.57,2.64,7.94,14.37,10.77,13.88,0,0,.19,1.48.19,1.48-.78-.07-1.08-.45-1.44-.71-2.01-1.91-3.57-4.19-5.18-6.43-4.35-6.4-8.56-13.04-11.29-20.31,0,0-1.88-4.26-1.88-4.26-1.7-3.89-4.58-11.08-6.37-14.85-1.33-2.93-7.41-7.01-8.57-2-.31,2.15-.35,4.55.09,6.69,0,0-.41.12-.41.12h0Z"/>
      <path class="cls-1" d="M120.98,20.35c-.4-1.55-.63-3.11-.85-4.69-.2-1.69-.54-3.46.2-5.09,1.03-2.58,4.3-4.46,7.02-3.21,1.78.7,2.64,2.55,3.17,4.24,3.3,11.3,4.64,23.17,9.85,33.86,1.97,4.24,4.2,8.41,6.95,12.18.72.92,1.73,2.33,2.65,2.68,0,0,.03,1.94.03,1.94-1.11-.06-1.87-1.04-2.48-1.81-1.43-1.95-2.51-4.1-3.62-6.22-4.35-8.4-7.75-17.23-10.32-26.33-1.27-4.53-2.54-9.05-3.99-13.52-.46-1.44-.93-2.9-1.69-4.17-1.54-2.36-4.81-1.08-5.87,1.15-1.07,2.76-.2,5.94-.12,8.83,0,0-.93.16-.93.16h0Z"/>
      <path class="cls-1" d="M131.37,19.02c-.13-.3-.08-.38-.09-.51.15-1.54.11-3.07.32-4.61.67-7.41,5.34-9.82,10.79-4.1,2.98,2.97,4.98,7.02,5.13,11.26.19,7.19-1.14,14.48.51,21.58.75,7.82,2.77,16.28,9.25,21.37,0,0-.93.88-.93.88-3.88-5.25-7.17-10.88-8.31-17.37-.55-3.19-1.19-6.33-1.66-9.52-.41-4.02-.26-8.1-.07-12.11-.09-2.21-.03-4.81-.61-6.98-.78-2.96-2.48-5.6-4.71-7.68-1.9-1.87-4.64-4.07-6.56-1.23-1.31,1.73-2.14,4.18-2.49,6.41-.11.61-.21,1.74.06,2.11,0,0-.64.51-.64.51h0Z"/>
    </g>
    <path class="cls-1" d="M97.89,75.22c-3.86,2.23-8.4,5.35-13.08,3.77-2.64-1.29-4.63-4.72-2.02-7.09,5.72-4.91,12.94-7.83,20.36-8.78,7.11-1.05,14.26-1.78,21.43-2.27,0,0,10.75-.69,10.75-.69l5.37-.35c1.79-.15,3.59-.08,5.36-.74l.1,2c-1.81-.48-3.6-.21-5.39-.17-5.37.23-10.74.64-16.1,1.04-7.14.61-14.31,1-21.4,1.94-7.46.72-14.7,4.1-19.91,9.36-.91,1.31-.04,2.87,1.13,3.74,2.35,1.95,5.59.56,8.3-.08,1.7-.5,3.39-1.13,5-1.9l.12.2h0Z"/>
  </g>
</svg>