<?xml version="1.0" encoding="UTF-8"?>
<svg id="Camada_1" data-name="Camada 1" xmlns="http://www.w3.org/2000/svg" viewBox="0 0 300 300">
  <defs>
    <style>
      .cls-1 {
        fill: #1d1d1b;
      }
    </style>
  </defs>
  <g>
    <g>
      <path class="cls-1" d="M58.95,52.92c-16.89,28.42-22.03,66.62-3.48,95.46,18.76,28.1,52.15,43.57,83.44,53.58-12.47-2.75-24.56-7.12-36.14-12.49-37.83-17.44-64.84-44.94-61.49-89.08,1.59-17.1,7.34-33.75,16.74-48.1,0,0,.93.63.93.63h0Z"/>
      <path class="cls-1" d="M90.62,180.67c11.56,4.92,25.5,2.79,35.76-4.25,1.26-.72,2.89-2.07,4.03-2.99.56-.45,1.44-1.1,1.92-1.62,6.12-5.84,11.6-12.74,18.89-17.25,1.1-.64,2.49-1.33,3.71-1.74,0,0,1.44-.32,1.44-.32,2.32-.39,4.97.73,5.7,3.14,0,0-.17-.41-.17-.41.1.18.14.28.18.39,1.76,5.41-3.17,10.19-7.06,13.07-3.33,2.62-8.8,5.21-12.6,7.14-4.28,2.13-8.54,4.29-12.89,6.31-3.27,1.51-6.54,3.01-9.95,4.2-3.82,1.24-7.92,1.55-12.12,2.07-3.06.15-6.23.67-9.12-.81,0,0,1.38-1.91,1.38-1.91.97.75,2.24.94,3.48,1.14,4.22.46,8.55-.06,12.73-.76,4.53-.75,8.83-3.28,13.02-5.16,4.27-2.1,8.52-4.27,12.7-6.56,6.25-3.61,15.65-7.74,17.85-15.16.21-1.06.1-1.94-.35-2.82-.17-.69-1.09-1.48-2.51-1.29l-1.06.16c-.69.22-1.54.45-2.18.78-6.29,2.93-11.58,8.34-16.55,13.16-.23.21-4.15,3.91-4.21,3.96-.33.26-1.19.91-1.53,1.17-3.27,2.69-7.13,4.86-10.98,6.59-4.74,1.92-9.84,3.16-14.94,3.51-5.24.23-10.31-.07-15.48-1.56,0,0,.89-2.18.89-2.18h0Z"/>
      <path class="cls-1" d="M158.02,163.1c.38.43.29.33.56.24,6.41-3.91,13.4-2.13,15.31,5.57,1.57,4.27-1.09,7.15-4.4,9.11-4.81,2.86-10.11,4.59-15.41,6.17-14.07,4.04-28.49,6.5-42.96,8.56,0,0-.11-.89-.11-.89,14.4-1.94,28.84-4.51,42.76-8.72,5.1-1.68,10.36-3.42,14.7-6.61,1.8-1.51,3.75-3.27,3.07-5.55-.29-.79-.48-1.64-.83-2.37-.36-.86-.9-1.84-1.45-2.57-.38-.38-.72-.88-1.17-1.18-1.72-1.52-4.53-1.84-6.85-1.29-.68.17-1.78.28-2.36.7-.05,0-.07.09.09.47l-.93-1.64h0Z"/>
      <path class="cls-1" d="M170.87,197.46c1.5.84,2.9.79,4.5.98,2.26.31,4.73.65,6.58,2.23,2.11,1.78,1.4,4.82.79,7.16-1.08,5.16-6.02,6.61-10.6,6.93-1.93-.03-3.91-.38-5.73-.81-4.39-1.03-8.59-2.48-12.77-4.09-1.17-.4-3.01-1.39-4.16-1.55-.05-.01,0,.03.14-.11.19-.25,0-.39.13-.15,1.45,2.02,3.7,3.36,5.76,4.73,2.49,1.57,5.06,3.03,7.61,4.53,4.57,2.67,10.56,5.41,11.3,11.37.22,4.23-5.16,6.78-8.56,4.81-3.51-1.66-6.34-4.41-9.07-6.95-4.27-4.15-8.47-8.3-12.54-12.6-3.97-4.17-8.1-8.63-11.97-12.9,0,0-.05-.05-.05-.05l-.02-.02c-.13.12,1.17-1.02.63-.53,0,0-.6.55-.6.55,0,0-1.31-1.24-1.31-1.24,0,0,.65-.65.65-.65,0,0,1.24,1.31,1.24,1.31,0,0-.6.55-.6.55-.55.48.72-.7.61-.55.02.02.05.07.07.08,0,0,.09.11.09.11l.18.21c5.6,6.61,11.54,12.95,17.87,18.86,4.23,3.94,8.96,7.71,14.02,10.4,1.22.61,2.57,1.2,3.53,1.2.95-.04,2-.75,2.54-1.38,1.23-1.99-.69-4.57-1.86-6.34-3.62-4.4-9.36-7.07-14.19-10.1-2.22-1.41-4.69-2.67-6.31-4.84-.18-.34-.39-.67-.05-1.17.26-.28.51-.29.64-.31.98-.04,1.89.38,2.67.65,4.83,1.61,9.8,3.18,14.79,4.12,2.07.37,4.12.7,6.17.4,3.33-.63,6.56-1.5,7.47-5.16.79-2.71,2.07-4.89-1.14-6.65-1.21-.68-2.63-1.1-4.06-1.35-1.42-.23-2.95-.5-4.34.41,0,0-.06-2.08-.06-2.08h0Z"/>
      <path class="cls-1" d="M129.44,198.76c5.9.21,11.8.07,17.69.52,5.87.44,11.79-.31,17.6-1.04,2.89-.41,5.77-.9,8.49-1.72,2.25-.77,5.62-1.74,6.34-4,.37-1.56.81-3.45.32-4.95-1.36-2.79-6.88-.79-9.07.34,2.84-1.9,8.28-5.23,11.16-1.62,1.34,1.96,1.1,4.25.71,6.38-1.76,10.37-27.6,7.31-35.57,7.97-5.93.3-11.86-.35-17.75-1.03,0,0,.07-.86.07-.86h0Z"/>
      <path class="cls-1" d="M162.65,229.23c2.48,3.35,6.14,6.75,6.14,11.44-.35,3.38-4.53,4.8-7.31,4.27-5.4-.91-8.37-5.81-11.33-9.88-2-2.67-5.94-9.6-7.73-12.52-1.64-2.82-3.62-5.41-5.41-8.14,0,0-11.17-16.07-11.17-16.07,0,0,.57-.4.57-.4,3.92,5.79,12.98,18.56,16.57,24.26,3.37,5.55,6.59,11.26,11.06,16.01,1.92,2.23,4.53,4.51,7.62,4.34,1.73-.06,3.71-.75,4.36-2.43,1.09-3.23-2.25-7.65-4.51-9.81,0,0,1.11-1.08,1.11-1.08h0Z"/>
      <path class="cls-1" d="M152.16,236.72c.13.8.6,1.48.84,2.24.84,2.51,1.27,5.31-.3,7.74-2.95,3.49-7.99.82-10.1-2.12-1.05-1.33-1.68-2.94-2.15-4.54-1.38-4.28-2.82-9-4.24-13.23-.87-2.98-2.4-5.66-3.75-8.41-1.26-2.8-2.59-5.56-3.98-8.3-1.54-2.77-7.25-14.16-10.26-13.92,0,.05.01.1.04.12,0,0-.25-2.23-.25-2.23.22.04.43.1.62.16,1.42.86,2.3,2.34,3.29,3.59,2.79,3.74,5.26,7.67,7.62,11.69,2.3,4.04,4.62,8.13,5.94,12.61,1.21,2.88,4.15,9.85,5.39,12.83,0,0,1.79,4.27,1.79,4.27.5,1.27,1.14,2.63,2.05,3.65,1.39,1.53,3.83,3.31,5.76,2.03.74-.79.95-2.31,1.03-3.48.08-.86.11-2.57.19-3.4.03-.39-.06-.77-.16-1.13,0,0,.62-.17.62-.17h0Z"/>
      <path class="cls-1" d="M140.37,234.39c.45,1.55.66,3.12.89,4.7.23,1.75.58,3.58-.19,5.3-1.1,2.81-4.74,4.81-7.69,3.35-2.69-1.2-3.22-4.41-3.89-6.94-2.3-10.45-3.69-21.95-8.26-31.72-1.91-4.24-4.1-8.42-6.84-12.17-.73-.89-1.49-2.09-2.48-2.47,0,.01.12.07.19.05v-2.91c.26.03.57.09.76.17,1.64.81,2.39,2.61,3.26,4.06,1.49,2.83,2.79,5.68,4.06,8.59,3.16,7.21,5.71,14.64,7.83,22.23,1.45,5.25,2.89,10.52,4.65,15.67.25.73.55,1.3.89,1.93.19.32.11.23.4.47,1.52,1.35,3.68.11,4.57-1.5.66-1.15.53-2.63.59-3.94.02-1.54-.11-3.08-.13-4.63l1.39-.22h0Z"/>
      <path class="cls-1" d="M130,235.46c.17.4.07.47.08.62-.48,3.32.06,6.53-1.6,9.71-2.6,4.63-7.39,2.29-10.1-.86-2.96-3.14-4.84-7.35-4.86-11.69.02-7.17,1.48-14.42-.01-21.52-.62-7.74-2.13-16.47-8.84-21.32,0,0,1.42-1.29,1.42-1.29,3.45,5.61,6.77,11.13,7.87,17.68.52,3.2,1.12,6.35,1.54,9.54.28,3.26.23,6.49.08,9.72-.18,2.19-.08,4.89.06,7.1.4,4.87,3.9,9.95,8.12,12.12,2.93,1.15,5.81-6.54,5.39-8.84-.02-.1-.05-.18-.08-.26-.02-.06-.13-.18-.05.03l.97-.74h0Z"/>
    </g>
    <path class="cls-1" d="M163.8,179.89c3.67-2.25,9.42-6.29,13.94-3.38,1.51,1.12,2.91,2.91,2.52,4.92-.16.88-.63,1.72-1.28,2.28-2.97,2.55-6.46,4.34-10,5.8-3.32,1.39-6.9,2.19-10.45,2.63-7.07.99-14.16,1.67-21.26,2.04-5.33.29-10.66.42-15.98.75-1.77.15-3.56-.04-5.31.87l-.1-3c1.8.8,3.56.47,5.34.48,5.32-.1,10.64-.48,15.95-.81,7.07-.5,14.18-.73,21.21-1.5,3.51-.37,6.92-1.08,10.13-2.58,3.38-1.52,6.49-3.61,9.13-6.13,1.48-1.46-.15-3.42-1.62-4.21-2.17-.84-4.67.05-7.01.51-1.71.38-3.4.94-5.03,1.63l-.17-.31h0Z"/>
  </g>
  <g>
    <g>
      <path class="cls-1" d="M205.98,200.51c14.48-25.26,20.18-57.64,7.85-84.83-7.63-17.49-22.58-30.51-38.49-40.43-16.32-9.96-34.24-17.14-52.6-22.47,12.57,2.53,24.81,6.67,36.55,11.81,38.25,16.66,66.4,43.57,63.79,88-.92,12.94-4.42,25.56-9.92,37.26-1.84,3.89-3.84,7.67-6.24,11.28l-.94-.62h0Z"/>
      <path class="cls-1" d="M171.92,73.3c-14.5-5.79-30.93-.97-42.01,9.49,0,0-3.59,3.59-3.59,3.59-2.03,2.25-4.98,5.37-7.13,7.46-3.78,3.35-11.11,10.52-16.57,8.35-1.17-.49-2.12-1.47-2.54-2.7,0,0,.18.41.18.41-.77-1.41-.73-3.13-.35-4.63,2.56-8.19,12.78-12.56,19.74-16.31,7.53-3.81,14.97-7.87,22.89-10.85,3.86-1.3,7.97-1.69,12.21-2.27,3.09-.2,6.27-.78,9.23.66,0,0-1.34,1.94-1.34,1.94-1-.74-2.3-.91-3.55-1.09-4.24-.38-8.57.17-12.75.96-4.62.81-8.93,3.4-13.17,5.37-4.28,2.17-8.53,4.4-12.72,6.75-3.6,2.06-8.93,4.89-12.05,7.57-2.82,2.45-6.97,6.44-5.59,10.3.31.98,1.02,1.87,2.76,1.66,0,0,1.07-.18,1.07-.18,4.38-1.3,7.89-4.3,11.4-7.21,3.54-3.13,7.62-7.4,11.08-10.65,5.79-5.14,12.82-9,20.36-10.86,7.67-1.83,15.57-1.95,23.29.05,0,0-.85,2.2-.85,2.2h0Z"/>
      <path class="cls-1" d="M104.03,91.96c-.38-.43-.3-.33-.56-.23-5.62,3.55-12.5,2.86-15.08-3.93-.41-.79-.6-2.01-.88-2.85-.84-3.42,2.3-6.36,4.77-7.77,11.35-6.4,24.37-8.9,36.94-11.73,7.22-1.5,14.47-2.76,21.76-3.89,0,0,.13.89.13.89-14.5,2.17-29.03,4.96-43.02,9.39-5.13,1.76-10.42,3.58-14.77,6.83-1.8,1.52-3.78,3.32-3.09,5.61.3.79.52,1.64.88,2.37.39.86.94,1.84,1.52,2.56.39.38.75.87,1.21,1.16,1.78,1.49,4.62,1.76,6.96,1.18.69-.18,1.79-.31,2.37-.74.06-.01.07-.09-.09-.47l.95,1.62h0Z"/>
      <path class="cls-1" d="M90.5,57.81c-1.53-.81-2.94-.75-4.54-.9-2.28-.28-4.76-.56-6.67-2.09-2.2-1.72-1.52-4.83-.93-7.18,1.03-5.2,6.01-6.7,10.59-7.09,1.94,0,3.94.31,5.78.71,5.84,1.18,11.45,3.39,17.02,5.36.07.01.14.02.19.02.04,0,.08-.02-.02.03-.12.05-.2.33-.16.35-1.38-2.04-3.81-3.37-5.9-4.71-3.83-2.3-7.79-4.39-11.7-6.57-2.74-1.5-5.35-3.47-6.92-6.37-1.58-2.79-.79-6.13,2.22-7.54,1.71-1.05,3.78-.93,5.47-.14,3.57,1.58,6.49,4.29,9.29,6.79,4.4,4.08,8.72,8.17,12.9,12.41,4.09,4.11,8.34,8.52,12.34,12.73,0,0,.05.05.05.05l.02.02c.13-.12-1.15,1.04-.61.54l.59-.57s1.35,1.22,1.35,1.22l-.64.67-1.28-1.29.59-.57c.54-.49-.7.71-.6.56-.02-.02-.06-.07-.07-.08,0,0-.09-.1-.09-.1,0,0-.18-.21-.18-.21-7.81-8.66-15.94-17.22-25.32-24.19-3.35-2.22-7.14-5.19-11.02-5.7-.51,0-.96.29-1.38.49-1.59.76-1.87,2.24-1.19,3.79,2.84,6.78,10.67,9.68,16.61,13.35,1.19.74,8.23,4.45,6.26,6.05-1.07.45-2.27-.24-3.2-.48,0,0-2.12-.66-2.12-.66-5.59-1.62-11.32-3.39-17.13-3.66-1.36-.04-2.73.28-4.04.66-1.37.39-2.65.87-3.54,1.6-1.69,1.44-2.51,4.89-2.78,7.07.25,2.62,3.98,3.65,6.33,4.03,1.43.21,2.98.45,4.36-.48l.09,2.07h0Z"/>
      <path class="cls-1" d="M132.36,55.83c-5.96-.12-11.92.12-17.87-.24-5.94-.35-11.9.49-17.75,1.31-4.25.69-8.62,1.45-12.41,3.41-1.17.6-2.14,1.42-2.45,2.19-.37,1.17-.58,2.56-.6,3.75-.2,4.94,6.82,2.48,9.41,1.09-1.2.89-2.51,1.66-3.91,2.28-6.04,2.97-9.48-.58-8.14-6.91,1.68-10.33,27.85-7.7,35.84-8.49,5.99-.39,11.97.16,17.93.74,0,0-.06.86-.06.86h0Z"/>
      <path class="cls-1" d="M98.3,25.91c-2.56-3.31-6.34-6.66-6.39-11.37.34-3.4,4.5-4.83,7.29-4.36,2.36.36,4.31,1.46,6.01,2.96,5.21,5.11,9.72,12.93,13.61,19.11,3.63,5.62,13.16,18.35,17.16,23.95,0,0-.56.41-.56.41-4.05-5.73-13.43-18.36-17.16-24.01-2.64-4.14-5.16-8.35-8.22-12.19-2.95-3.28-6.09-8.02-10.99-7.84-5.67.43-5.42,4.73-2.75,8.59.87,1.32,1.87,2.63,3.08,3.65l-1.09,1.1h0Z"/>
      <path class="cls-1" d="M108.78,18.25c-.89-2.44-1.92-4.4-1.64-7.17.19-3.68,3.55-5.41,6.88-4.07,3.39,1.33,5.55,4.34,6.52,7.71,2.56,7.24,4.56,14.9,8.45,21.54,1.89,3.9,10.78,22.2,14.75,21.97-.1-.53.26,2.17.25,2.1-.22-.04-.42-.09-.61-.15-1.44-.83-2.36-2.29-3.38-3.53-2.88-3.69-5.44-7.58-7.89-11.56-2.39-4-4.81-8.06-6.22-12.52-1.27-2.86-4.36-9.8-5.66-12.76,0,0-1.88-4.25-1.88-4.25-.53-1.26-1.19-2.61-2.14-3.61-1.45-1.52-3.93-3.23-5.87-1.93-.73.8-.93,2.31-.99,3.49-.07.86-.07,2.58-.13,3.41-.02.39.07.77.18,1.13l-.61.18h0Z"/>
      <path class="cls-1" d="M120.75,20.39c-.48-1.55-.71-3.11-.98-4.7-.26-1.76-.64-3.59.13-5.32,1.16-3.1,5.4-5.12,8.37-3.06,2.21,1.36,2.66,4.2,3.34,6.47,2.5,10.43,4.1,21.93,8.89,31.63,1.99,4.21,4.28,8.35,7.1,12.05.75.88,1.54,2.06,2.55,2.43-.01-.01-.12-.07-.18-.05,0,0,.05,2.91.05,2.91-.25-.02-.57-.08-.76-.16-1.66-.78-2.46-2.56-3.36-3.99-1.55-2.8-2.92-5.63-4.25-8.52-4.73-9.96-7.83-20.59-11.01-31.12-.99-2.85-1.69-5.89-3.16-8.51-1.36-1.96-4.08-.72-5.02,1.12-1.11,2.65-.28,5.77-.32,8.59,0,0-1.39.25-1.39.25h0Z"/>
      <path class="cls-1" d="M131.21,19.15c-.18-.4-.08-.47-.09-.62.42-3.34-.16-6.55,1.48-9.76,2.54-4.63,7.37-2.41,10.15.67,3.03,3.07,5.03,7.24,5.14,11.6.11,7.18-1.26,14.47.36,21.57.75,7.74,2.44,16.46,9.28,21.18,0,0-1.39,1.32-1.39,1.32-1.73-2.88-3.6-5.48-5.05-8.39-3.03-5.77-3.81-12.37-4.91-18.69-.59-4.83-.03-9.63-.25-14.45-.1-1.33-.16-3.31-.58-4.57-1.12-3.96-4.37-8.06-8-9.76-3.02-.99-5.35,5.97-5.38,8.35,0,.29.05.58.16.84.02.06.14.18.05-.03l-.96.76h0Z"/>
    </g>
    <path class="cls-1" d="M97.92,75.27c-3.72,2.31-8.4,5.81-13.27,4.06-2.49-1.2-4.62-4.45-2.69-7.02.28-.44.77-.79,1.13-1.12,2.89-2.36,6.15-4.07,9.5-5.49,3.33-1.44,6.94-2.28,10.52-2.78,7.12-1.1,14.27-1.9,21.44-2.38,5.37-.37,10.75-.59,16.13-1.01,1.79-.18,3.59-.02,5.35-.96l.14,3c-1.83-.77-3.61-.42-5.4-.39-5.37.19-10.73.65-16.09,1.07-8.88.85-17.9.91-26.63,2.76-5.27,1.4-10.24,4.32-14.13,8.07-.37.34-.52.74-.59,1.19-.13.9.64,1.85,1.39,2.43.84.74,1.75.94,2.97.88,3.31-.29,6.91-1.29,10.06-2.63,0,0,.17.3.17.3h0Z"/>
  </g>
</svg>